<svg xmlns="http://www.w3.org/2000/svg" viewBox="0 0 64 64" fill="none">
  <rect x="14" y="14" width="36" height="36" rx="8" stroke="#B8A7FF" stroke-width="2.5"/>
  <path d="M22 6v8M32 6v8M42 6v8M22 50v8M32 50v8M42 50v8M6 22h8M6 32h8M6 42h8M50 22h8M50 32h8M50 42h8" stroke="#B8A7FF" stroke-width="2.5" stroke-linecap="round"/>
  <circle cx="24" cy="28" r="3" stroke="#75F0DC" stroke-width="2.5"/>
  <circle cx="40" cy="24" r="3" stroke="#75F0DC" stroke-width="2.5"/>
  <circle cx="38" cy="40" r="3" stroke="#75F0DC" stroke-width="2.5"/>
  <path d="m27 27 10-2M26 30l9 8M40 27l-1 10" stroke="#75F0DC" stroke-width="2.5" stroke-linecap="round"/>
</svg>
