<svg xmlns="http://www.w3.org/2000/svg" viewBox="0 0 960 420" role="img" aria-labelledby="title"><title id="title">验证之环：重复轮廓与穿过圆环的几何带</title><style>path,ellipse{vector-effect:non-scaling-stroke}</style><rect width="960" height="420" fill="#000"/><defs><clipPath id="front"><path d="M480 20H840V410H480Z"/></clipPath></defs><ellipse cx="480" cy="210" rx="98.00" ry="137.00" transform="rotate(28 480 210)" fill="none" stroke="#cbd3d9" stroke-opacity="0.170" stroke-width=".85"/><ellipse cx="480" cy="210" rx="99.88" ry="138.88" transform="rotate(28 480 210)" fill="none" stroke="#cbd3d9" stroke-opacity="0.229" stroke-width=".85"/><ellipse cx="480" cy="210" rx="101.76" ry="140.76" transform="rotate(28 480 210)" fill="none" stroke="#cbd3d9" stroke-opacity="0.286" stroke-width=".85"/><ellipse cx="480" cy="210" rx="103.65" ry="142.65" transform="rotate(28 480 210)" fill="none" stroke="#cbd3d9" stroke-opacity="0.338" stroke-width=".85"/><ellipse cx="480" cy="210" rx="105.53" ry="144.53" transform="rotate(28 480 210)" fill="none" stroke="#cbd3d9" stroke-opacity="0.386" stroke-width=".85"/><ellipse cx="480" cy="210" rx="107.41" ry="146.41" transform="rotate(28 480 210)" fill="none" stroke="#cbd3d9" stroke-opacity="0.425" stroke-width=".85"/><ellipse cx="480" cy="210" rx="109.29" ry="148.29" transform="rotate(28 480 210)" fill="none" stroke="#cbd3d9" stroke-opacity="0.456" stroke-width=".85"/><ellipse cx="480" cy="210" rx="111.18" ry="150.18" transform="rotate(28 480 210)" fill="none" stroke="#cbd3d9" stroke-opacity="0.478" stroke-width=".85"/><ellipse cx="480" cy="210" rx="113.06" ry="152.06" transform="rotate(28 480 210)" fill="none" stroke="#cbd3d9" stroke-opacity="0.489" stroke-width=".85"/><ellipse cx="480" cy="210" rx="114.94" ry="153.94" transform="rotate(28 480 210)" fill="none" stroke="#cbd3d9" stroke-opacity="0.489" stroke-width=".85"/><ellipse cx="480" cy="210" rx="116.82" ry="155.82" transform="rotate(28 480 210)" fill="none" stroke="#cbd3d9" stroke-opacity="0.478" stroke-width=".85"/><ellipse cx="480" cy="210" rx="118.71" ry="157.71" transform="rotate(28 480 210)" fill="none" stroke="#cbd3d9" stroke-opacity="0.456" stroke-width=".85"/><ellipse cx="480" cy="210" rx="120.59" ry="159.59" transform="rotate(28 480 210)" fill="none" stroke="#cbd3d9" stroke-opacity="0.425" stroke-width=".85"/><ellipse cx="480" cy="210" rx="122.47" ry="161.47" transform="rotate(28 480 210)" fill="none" stroke="#cbd3d9" stroke-opacity="0.386" stroke-width=".85"/><ellipse cx="480" cy="210" rx="124.35" ry="163.35" transform="rotate(28 480 210)" fill="none" stroke="#cbd3d9" stroke-opacity="0.338" stroke-width=".85"/><ellipse cx="480" cy="210" rx="126.24" ry="165.24" transform="rotate(28 480 210)" fill="none" stroke="#cbd3d9" stroke-opacity="0.286" stroke-width=".85"/><ellipse cx="480" cy="210" rx="128.12" ry="167.12" transform="rotate(28 480 210)" fill="none" stroke="#cbd3d9" stroke-opacity="0.229" stroke-width=".85"/><ellipse cx="480" cy="210" rx="130.00" ry="169.00" transform="rotate(28 480 210)" fill="none" stroke="#cbd3d9" stroke-opacity="0.170" stroke-width=".85"/><path d="M169 235L756 137L789 182L202 280Z" fill="#0e1114" stroke="#77818a" stroke-opacity=".55" stroke-width="1"/><path d="M174.00 241.00 L761.00 143.00" stroke="#b8c1c9" stroke-opacity="0.15" stroke-width=".8"/><path d="M177.57 245.71 L764.57 147.71" stroke="#b8c1c9" stroke-opacity="0.19" stroke-width=".8"/><path d="M181.14 250.43 L768.14 152.43" stroke="#b8c1c9" stroke-opacity="0.22" stroke-width=".8"/><path d="M184.71 255.14 L771.71 157.14" stroke="#b8c1c9" stroke-opacity="0.26" stroke-width=".8"/><path d="M188.29 259.86 L775.29 161.86" stroke="#b8c1c9" stroke-opacity="0.29" stroke-width=".8"/><path d="M191.86 264.57 L778.86 166.57" stroke="#b8c1c9" stroke-opacity="0.33" stroke-width=".8"/><path d="M195.43 269.29 L782.43 171.29" stroke="#b8c1c9" stroke-opacity="0.36" stroke-width=".8"/><path d="M199.00 274.00 L786.00 176.00" stroke="#b8c1c9" stroke-opacity="0.40" stroke-width=".8"/><g clip-path="url(#front)"><ellipse cx="480" cy="210" rx="98.00" ry="137.00" transform="rotate(28 480 210)" fill="none" stroke="#cbd3d9" stroke-opacity="0.170" stroke-width=".85"/><ellipse cx="480" cy="210" rx="99.88" ry="138.88" transform="rotate(28 480 210)" fill="none" stroke="#cbd3d9" stroke-opacity="0.229" stroke-width=".85"/><ellipse cx="480" cy="210" rx="101.76" ry="140.76" transform="rotate(28 480 210)" fill="none" stroke="#cbd3d9" stroke-opacity="0.286" stroke-width=".85"/><ellipse cx="480" cy="210" rx="103.65" ry="142.65" transform="rotate(28 480 210)" fill="none" stroke="#cbd3d9" stroke-opacity="0.338" stroke-width=".85"/><ellipse cx="480" cy="210" rx="105.53" ry="144.53" transform="rotate(28 480 210)" fill="none" stroke="#cbd3d9" stroke-opacity="0.386" stroke-width=".85"/><ellipse cx="480" cy="210" rx="107.41" ry="146.41" transform="rotate(28 480 210)" fill="none" stroke="#cbd3d9" stroke-opacity="0.425" stroke-width=".85"/><ellipse cx="480" cy="210" rx="109.29" ry="148.29" transform="rotate(28 480 210)" fill="none" stroke="#cbd3d9" stroke-opacity="0.456" stroke-width=".85"/><ellipse cx="480" cy="210" rx="111.18" ry="150.18" transform="rotate(28 480 210)" fill="none" stroke="#cbd3d9" stroke-opacity="0.478" stroke-width=".85"/><ellipse cx="480" cy="210" rx="113.06" ry="152.06" transform="rotate(28 480 210)" fill="none" stroke="#cbd3d9" stroke-opacity="0.489" stroke-width=".85"/><ellipse cx="480" cy="210" rx="114.94" ry="153.94" transform="rotate(28 480 210)" fill="none" stroke="#cbd3d9" stroke-opacity="0.489" stroke-width=".85"/><ellipse cx="480" cy="210" rx="116.82" ry="155.82" transform="rotate(28 480 210)" fill="none" stroke="#cbd3d9" stroke-opacity="0.478" stroke-width=".85"/><ellipse cx="480" cy="210" rx="118.71" ry="157.71" transform="rotate(28 480 210)" fill="none" stroke="#cbd3d9" stroke-opacity="0.456" stroke-width=".85"/><ellipse cx="480" cy="210" rx="120.59" ry="159.59" transform="rotate(28 480 210)" fill="none" stroke="#cbd3d9" stroke-opacity="0.425" stroke-width=".85"/><ellipse cx="480" cy="210" rx="122.47" ry="161.47" transform="rotate(28 480 210)" fill="none" stroke="#cbd3d9" stroke-opacity="0.386" stroke-width=".85"/><ellipse cx="480" cy="210" rx="124.35" ry="163.35" transform="rotate(28 480 210)" fill="none" stroke="#cbd3d9" stroke-opacity="0.338" stroke-width=".85"/><ellipse cx="480" cy="210" rx="126.24" ry="165.24" transform="rotate(28 480 210)" fill="none" stroke="#cbd3d9" stroke-opacity="0.286" stroke-width=".85"/><ellipse cx="480" cy="210" rx="128.12" ry="167.12" transform="rotate(28 480 210)" fill="none" stroke="#cbd3d9" stroke-opacity="0.229" stroke-width=".85"/><ellipse cx="480" cy="210" rx="130.00" ry="169.00" transform="rotate(28 480 210)" fill="none" stroke="#cbd3d9" stroke-opacity="0.170" stroke-width=".85"/></g><ellipse cx="480" cy="210" rx="130" ry="169" transform="rotate(28 480 210)" fill="none" stroke="#e3e8ec" stroke-opacity=".7" stroke-width="1.2"/></svg>