<svg xmlns="http://www.w3.org/2000/svg" viewBox="0 0 960 420" role="img" aria-labelledby="title"><title id="title">光的截面：连续线场与三个观察截面</title><style>path,ellipse{vector-effect:non-scaling-stroke}</style><rect width="960" height="420" fill="#000"/><path d="M 150 96.00 C 290 96.00, 358 66.00, 478 83.00 S 694 96.00, 810 72.00" fill="none" stroke="#c8ced3" stroke-opacity="0.150" stroke-width="1.1"/><path d="M 150 106.23 C 290 114.34, 358 68.12, 478 93.23 S 694 114.34, 810 82.23" fill="none" stroke="#c8ced3" stroke-opacity="0.321" stroke-width="1.1"/><path d="M 150 116.45 C 290 132.51, 358 70.40, 478 103.45 S 694 132.51, 810 92.45" fill="none" stroke="#c8ced3" stroke-opacity="0.407" stroke-width="1.1"/><path d="M 150 126.68 C 290 150.36, 358 73.00, 478 113.68 S 694 150.36, 810 102.68" fill="none" stroke="#c8ced3" stroke-opacity="0.475" stroke-width="1.1"/><path d="M 150 136.91 C 290 167.73, 358 76.09, 478 123.91 S 694 167.73, 810 112.91" fill="none" stroke="#c8ced3" stroke-opacity="0.530" stroke-width="1.1"/><path d="M 150 147.14 C 290 184.46, 358 79.81, 478 134.14 S 694 184.46, 810 123.14" fill="none" stroke="#c8ced3" stroke-opacity="0.577" stroke-width="1.1"/><path d="M 150 157.36 C 290 200.44, 358 84.29, 478 144.36 S 694 200.44, 810 133.36" fill="none" stroke="#c8ced3" stroke-opacity="0.615" stroke-width="1.1"/><path d="M 150 167.59 C 290 215.54, 358 89.64, 478 154.59 S 694 215.54, 810 143.59" fill="none" stroke="#c8ced3" stroke-opacity="0.646" stroke-width="1.1"/><path d="M 150 177.82 C 290 229.67, 358 95.97, 478 164.82 S 694 229.67, 810 153.82" fill="none" stroke="#c8ced3" stroke-opacity="0.670" stroke-width="1.1"/><path d="M 150 188.05 C 290 242.74, 358 103.35, 478 175.05 S 694 242.74, 810 164.05" fill="none" stroke="#c8ced3" stroke-opacity="0.687" stroke-width="1.1"/><path d="M 150 198.27 C 290 254.69, 358 111.85, 478 185.27 S 694 254.69, 810 174.27" fill="none" stroke="#c8ced3" stroke-opacity="0.697" stroke-width="1.1"/><path d="M 150 208.50 C 290 265.50, 358 121.50, 478 195.50 S 694 265.50, 810 184.50" fill="none" stroke="#c8ced3" stroke-opacity="0.700" stroke-width="1.1"/><path d="M 150 218.73 C 290 275.15, 358 132.31, 478 205.73 S 694 275.15, 810 194.73" fill="none" stroke="#c8ced3" stroke-opacity="0.697" stroke-width="1.1"/><path d="M 150 228.95 C 290 283.65, 358 144.26, 478 215.95 S 694 283.65, 810 204.95" fill="none" stroke="#c8ced3" stroke-opacity="0.687" stroke-width="1.1"/><path d="M 150 239.18 C 290 291.03, 358 157.33, 478 226.18 S 694 291.03, 810 215.18" fill="none" stroke="#c8ced3" stroke-opacity="0.670" stroke-width="1.1"/><path d="M 150 249.41 C 290 297.36, 358 171.46, 478 236.41 S 694 297.36, 810 225.41" fill="none" stroke="#c8ced3" stroke-opacity="0.646" stroke-width="1.1"/><path d="M 150 259.64 C 290 302.71, 358 186.56, 478 246.64 S 694 302.71, 810 235.64" fill="none" stroke="#c8ced3" stroke-opacity="0.615" stroke-width="1.1"/><path d="M 150 269.86 C 290 307.19, 358 202.54, 478 256.86 S 694 307.19, 810 245.86" fill="none" stroke="#c8ced3" stroke-opacity="0.577" stroke-width="1.1"/><path d="M 150 280.09 C 290 310.91, 358 219.27, 478 267.09 S 694 310.91, 810 256.09" fill="none" stroke="#c8ced3" stroke-opacity="0.530" stroke-width="1.1"/><path d="M 150 290.32 C 290 314.00, 358 236.64, 478 277.32 S 694 314.00, 810 266.32" fill="none" stroke="#c8ced3" stroke-opacity="0.475" stroke-width="1.1"/><path d="M 150 300.55 C 290 316.60, 358 254.49, 478 287.55 S 694 316.60, 810 276.55" fill="none" stroke="#c8ced3" stroke-opacity="0.407" stroke-width="1.1"/><path d="M 150 310.77 C 290 318.88, 358 272.66, 478 297.77 S 694 318.88, 810 286.77" fill="none" stroke="#c8ced3" stroke-opacity="0.321" stroke-width="1.1"/><path d="M 150 321.00 C 290 321.00, 358 291.00, 478 308.00 S 694 321.00, 810 297.00" fill="none" stroke="#c8ced3" stroke-opacity="0.150" stroke-width="1.1"/><path d="M360,56 l76,35 v265 l-76,-35 Z" fill="#181c20" fill-opacity=".64" stroke="#b9c1c8" stroke-opacity="0.13" stroke-width="1"/><path d="M372,108 l51,23" fill="none" stroke="#dfe5e9" stroke-opacity="0.273" stroke-width="1.2"/><path d="M372,121 l51,23" fill="none" stroke="#dfe5e9" stroke-opacity="0.382" stroke-width="1.2"/><path d="M372,134 l51,23" fill="none" stroke="#dfe5e9" stroke-opacity="0.482" stroke-width="1.2"/><path d="M372,147 l51,23" fill="none" stroke="#dfe5e9" stroke-opacity="0.570" stroke-width="1.2"/><path d="M372,160 l51,23" fill="none" stroke="#dfe5e9" stroke-opacity="0.642" stroke-width="1.2"/><path d="M372,173 l51,23" fill="none" stroke="#dfe5e9" stroke-opacity="0.696" stroke-width="1.2"/><path d="M372,186 l51,23" fill="none" stroke="#dfe5e9" stroke-opacity="0.729" stroke-width="1.2"/><path d="M372,199 l51,23" fill="none" stroke="#dfe5e9" stroke-opacity="0.740" stroke-width="1.2"/><path d="M372,212 l51,23" fill="none" stroke="#dfe5e9" stroke-opacity="0.729" stroke-width="1.2"/><path d="M372,225 l51,23" fill="none" stroke="#dfe5e9" stroke-opacity="0.696" stroke-width="1.2"/><path d="M372,238 l51,23" fill="none" stroke="#dfe5e9" stroke-opacity="0.642" stroke-width="1.2"/><path d="M372,251 l51,23" fill="none" stroke="#dfe5e9" stroke-opacity="0.570" stroke-width="1.2"/><path d="M372,264 l51,23" fill="none" stroke="#dfe5e9" stroke-opacity="0.482" stroke-width="1.2"/><path d="M372,277 l51,23" fill="none" stroke="#dfe5e9" stroke-opacity="0.382" stroke-width="1.2"/><path d="M372,290 l51,23" fill="none" stroke="#dfe5e9" stroke-opacity="0.273" stroke-width="1.2"/><path d="M436,91 v265" fill="none" stroke="#e5eaed" stroke-opacity="0.43" stroke-width="1.2"/><path d="M472,67 l76,35 v265 l-76,-35 Z" fill="#181c20" fill-opacity=".64" stroke="#b9c1c8" stroke-opacity="0.23" stroke-width="1"/><path d="M484,119 l51,23" fill="none" stroke="#dfe5e9" stroke-opacity="0.273" stroke-width="1.2"/><path d="M484,132 l51,23" fill="none" stroke="#dfe5e9" stroke-opacity="0.382" stroke-width="1.2"/><path d="M484,145 l51,23" fill="none" stroke="#dfe5e9" stroke-opacity="0.482" stroke-width="1.2"/><path d="M484,158 l51,23" fill="none" stroke="#dfe5e9" stroke-opacity="0.570" stroke-width="1.2"/><path d="M484,171 l51,23" fill="none" stroke="#dfe5e9" stroke-opacity="0.642" stroke-width="1.2"/><path d="M484,184 l51,23" fill="none" stroke="#dfe5e9" stroke-opacity="0.696" stroke-width="1.2"/><path d="M484,197 l51,23" fill="none" stroke="#dfe5e9" stroke-opacity="0.729" stroke-width="1.2"/><path d="M484,210 l51,23" fill="none" stroke="#dfe5e9" stroke-opacity="0.740" stroke-width="1.2"/><path d="M484,223 l51,23" fill="none" stroke="#dfe5e9" stroke-opacity="0.729" stroke-width="1.2"/><path d="M484,236 l51,23" fill="none" stroke="#dfe5e9" stroke-opacity="0.696" stroke-width="1.2"/><path d="M484,249 l51,23" fill="none" stroke="#dfe5e9" stroke-opacity="0.642" stroke-width="1.2"/><path d="M484,262 l51,23" fill="none" stroke="#dfe5e9" stroke-opacity="0.570" stroke-width="1.2"/><path d="M484,275 l51,23" fill="none" stroke="#dfe5e9" stroke-opacity="0.482" stroke-width="1.2"/><path d="M484,288 l51,23" fill="none" stroke="#dfe5e9" stroke-opacity="0.382" stroke-width="1.2"/><path d="M484,301 l51,23" fill="none" stroke="#dfe5e9" stroke-opacity="0.273" stroke-width="1.2"/><path d="M548,102 v265" fill="none" stroke="#e5eaed" stroke-opacity="0.53" stroke-width="1.2"/><path d="M584,78 l76,35 v265 l-76,-35 Z" fill="#181c20" fill-opacity=".64" stroke="#b9c1c8" stroke-opacity="0.4" stroke-width="1"/><path d="M596,130 l51,23" fill="none" stroke="#dfe5e9" stroke-opacity="0.273" stroke-width="1.2"/><path d="M596,143 l51,23" fill="none" stroke="#dfe5e9" stroke-opacity="0.382" stroke-width="1.2"/><path d="M596,156 l51,23" fill="none" stroke="#dfe5e9" stroke-opacity="0.482" stroke-width="1.2"/><path d="M596,169 l51,23" fill="none" stroke="#dfe5e9" stroke-opacity="0.570" stroke-width="1.2"/><path d="M596,182 l51,23" fill="none" stroke="#dfe5e9" stroke-opacity="0.642" stroke-width="1.2"/><path d="M596,195 l51,23" fill="none" stroke="#dfe5e9" stroke-opacity="0.696" stroke-width="1.2"/><path d="M596,208 l51,23" fill="none" stroke="#dfe5e9" stroke-opacity="0.729" stroke-width="1.2"/><path d="M596,221 l51,23" fill="none" stroke="#dfe5e9" stroke-opacity="0.740" stroke-width="1.2"/><path d="M596,234 l51,23" fill="none" stroke="#dfe5e9" stroke-opacity="0.729" stroke-width="1.2"/><path d="M596,247 l51,23" fill="none" stroke="#dfe5e9" stroke-opacity="0.696" stroke-width="1.2"/><path d="M596,260 l51,23" fill="none" stroke="#dfe5e9" stroke-opacity="0.642" stroke-width="1.2"/><path d="M596,273 l51,23" fill="none" stroke="#dfe5e9" stroke-opacity="0.570" stroke-width="1.2"/><path d="M596,286 l51,23" fill="none" stroke="#dfe5e9" stroke-opacity="0.482" stroke-width="1.2"/><path d="M596,299 l51,23" fill="none" stroke="#dfe5e9" stroke-opacity="0.382" stroke-width="1.2"/><path d="M596,312 l51,23" fill="none" stroke="#dfe5e9" stroke-opacity="0.273" stroke-width="1.2"/><path d="M660,113 v265" fill="none" stroke="#e5eaed" stroke-opacity="0.7" stroke-width="1.2"/></svg>